<svg width="81" height="88" viewBox="0 0 81 88" fill="none" xmlns="http://www.w3.org/2000/svg">
<g opacity="0.9">
<path opacity="0.8" fill-rule="evenodd" clip-rule="evenodd" d="M8.65275 53.2816C10.4821 55.1005 10.4821 58.0494 8.65269 59.8682L8.559 59.9614C6.72958 61.7802 3.76354 61.7802 1.93415 59.9613C0.104769 58.1425 0.104797 55.1935 1.93422 53.3747L2.02791 53.2816C3.85733 51.4628 6.82337 51.4628 8.65275 53.2816Z" fill="white"/>
<path opacity="0.9" fill-rule="evenodd" clip-rule="evenodd" d="M30.6758 54.6845C32.5019 56.5067 32.4965 59.4556 30.6638 61.2711L17.6878 74.1256C15.8551 75.9412 12.8891 75.9359 11.063 74.1137C9.23688 72.2916 9.24224 69.3427 11.0749 67.5271L24.0509 54.6726C25.8837 52.8571 28.8497 52.8624 30.6758 54.6845Z" fill="white"/>
<path opacity="0.8" fill-rule="evenodd" clip-rule="evenodd" d="M48.2874 76.8127C49.7225 74.6725 52.6309 74.0942 54.7836 75.521L55.0646 75.7073C57.2173 77.1341 57.799 80.0257 56.3639 82.166C54.9288 84.3062 52.0203 84.8845 49.8677 83.4577L49.5866 83.2714C47.434 81.8446 46.8523 78.953 48.2874 76.8127Z" fill="white"/>
<path opacity="0.9" fill-rule="evenodd" clip-rule="evenodd" d="M79.2009 53.0023C81.0303 54.8212 81.0303 57.7701 79.2009 59.5889L72.83 65.923C71.0006 67.7419 68.0346 67.7419 66.2052 65.923C64.3758 64.1042 64.3758 61.1553 66.2052 59.3364L72.5761 53.0023C74.4055 51.1835 77.3715 51.1835 79.2009 53.0023Z" fill="white"/>
<path fill-rule="evenodd" clip-rule="evenodd" d="M79.2946 29.5751C81.124 31.3939 81.124 34.3428 79.2946 36.1617L32.2157 82.9688C30.3863 84.7877 27.4202 84.7877 25.5908 82.9688C23.7614 81.15 23.7614 78.2011 25.5908 76.3822L72.6698 29.5751C74.4992 27.7562 77.4652 27.7562 79.2946 29.5751Z" fill="white"/>
<path fill-rule="evenodd" clip-rule="evenodd" d="M70.3941 15.184C72.2235 17.0028 72.2235 19.9517 70.3941 21.7706L43.3178 48.6905C41.4884 50.5093 38.5224 50.5093 36.693 48.6905C34.8636 46.8716 34.8636 43.9227 36.693 42.1039L63.7693 15.184C65.5987 13.3651 68.5647 13.3651 70.3941 15.184Z" fill="white"/>
<path fill-rule="evenodd" clip-rule="evenodd" d="M56.1043 6.05283C57.9349 7.87045 57.9369 10.8194 56.1087 12.6394L21.3031 47.2907C19.4749 49.1108 16.5089 49.1127 14.6782 47.2951C12.8476 45.4775 12.8456 42.5286 14.6738 40.7085L49.4794 6.05726C51.3076 4.2372 54.2737 4.23522 56.1043 6.05283Z" fill="white"/>
<path opacity="0.9" fill-rule="evenodd" clip-rule="evenodd" d="M21.6344 17.1457C23.4607 18.9676 23.4556 21.9166 21.623 23.7323L7.99119 37.2388C6.15865 39.0545 3.1926 39.0494 1.36635 37.2275C-0.459895 35.4055 -0.45479 32.4566 1.37776 30.6409L15.0096 17.1343C16.8421 15.3186 19.8082 15.3237 21.6344 17.1457Z" fill="white"/>
<path opacity="0.8" fill-rule="evenodd" clip-rule="evenodd" d="M29.9806 3.6665C32.5678 3.6665 34.6651 5.75171 34.6651 8.32393V8.78968C34.6651 11.3619 32.5678 13.4471 29.9806 13.4471C27.3935 13.4471 25.2961 11.3619 25.2961 8.78968V8.32393C25.2961 5.75171 27.3935 3.6665 29.9806 3.6665Z" fill="white"/>
</g>
</svg>
